<svg width="47" height="47" viewBox="0 0 47 47" fill="none" xmlns="http://www.w3.org/2000/svg">
<path d="M23.5 0C10.542 0 0 10.542 0 23.5C0 36.458 10.542 47 23.5 47C36.458 47 47 36.458 47 23.5C47 10.542 36.458 0 23.5 0ZM23.5 44.3113C12.0245 44.3113 2.68868 34.9753 2.68868 23.5C2.68868 12.0247 12.0245 2.68868 23.5 2.68868C34.9755 2.68868 44.3113 12.0247 44.3113 23.5C44.3113 34.9753 34.9755 44.3113 23.5 44.3113Z" fill="white"/>
<path d="M28.9428 10.7476H25.7561C23.148 10.7476 21.026 12.8695 21.026 15.4777V19.0626H18.0572C17.3147 19.0626 16.7129 19.6644 16.7129 20.407C16.7129 21.1495 17.3147 21.7513 18.0572 21.7513H21.026V34.1989C21.026 34.9414 21.6278 35.5432 22.3703 35.5432C23.1129 35.5432 23.7147 34.9414 23.7147 34.1989V21.7513H28.3078C29.0504 21.7513 29.6522 21.1495 29.6522 20.407C29.6522 19.6644 29.0504 19.0626 28.3078 19.0626H23.7147V15.4777C23.7147 14.352 24.6305 13.4362 25.7561 13.4362H28.9427C29.6852 13.4362 30.287 12.8344 30.287 12.0919C30.287 11.3494 29.6852 10.7476 28.9428 10.7476Z" fill="white"/>
</svg>
