<svg width="47" height="47" viewBox="0 0 47 47" fill="none" xmlns="http://www.w3.org/2000/svg">
<path d="M23.5 0C10.542 0 0 10.542 0 23.5C0 36.458 10.542 47 23.5 47C36.458 47 47 36.458 47 23.5C47 10.542 36.458 0 23.5 0ZM23.5 44.3113C12.0247 44.3113 2.68868 34.9753 2.68868 23.5C2.68868 12.0247 12.0247 2.68868 23.5 2.68868C34.9753 2.68868 44.3113 12.0247 44.3113 23.5C44.3113 34.9753 34.9753 44.3113 23.5 44.3113Z" fill="white"/>
<path d="M28.1305 19.8374C28.873 19.8374 29.4749 19.2356 29.4749 18.4931C29.4749 17.7505 28.873 17.1487 28.1305 17.1487H20.2138V15.7826C20.2138 15.04 19.612 14.4382 18.8695 14.4382C18.127 14.4382 17.5251 15.04 17.5251 15.7826V24.6624C17.5251 29.0182 21.0688 32.5621 25.4247 32.5621H28.1305C28.873 32.5621 29.4749 31.9602 29.4749 31.2177C29.4749 30.4752 28.873 29.8734 28.1305 29.8734H25.4247C22.5515 29.8734 20.2138 27.5359 20.2138 24.6624V19.8374H28.1305Z" fill="white"/>
</svg>
